HIERARCHY
ROOT pelvis
{
	OFFSET 0.003123 -0.351407 0.012037
	CHANNELS 6 Xposition Yposition Zposition Zrotation Yrotation Xrotation 
	JOINT left_hip
	{
		OFFSET 0.058189 -0.092763 -0.026001
		CHANNELS 3 Zrotation Yrotation Xrotation
		JOINT left_knee
		{
			OFFSET 0.054695 -0.378753 -0.009396
			CHANNELS 3 Zrotation Yrotation Xrotation
			JOINT left_ankle
			{
				OFFSET -0.043453 -0.403059 -0.031876
				CHANNELS 3 Zrotation Yrotation Xrotation
				JOINT left_foot
				{
					OFFSET 0.047257 -0.057997 0.118216
					CHANNELS 3 Zrotation Yrotation Xrotation
					End Site
					{
						OFFSET 0.000000 0.000000 0.000000
					}
				}
			}
		}
	}
	JOINT right_hip
	{
		OFFSET -0.063267 -0.103908 -0.021250
		CHANNELS 3 Zrotation Yrotation Xrotation
		JOINT right_knee
		{
			OFFSET -0.044210 -0.362380 -0.016824
			CHANNELS 3 Zrotation Yrotation Xrotation
			JOINT right_ankle
			{
				OFFSET 0.015417 -0.410728 -0.020192
				CHANNELS 3 Zrotation Yrotation Xrotation
				JOINT right_foot
				{
					OFFSET -0.038812 -0.058328 0.119049
					CHANNELS 3 Zrotation Yrotation Xrotation
					End Site
					{
						OFFSET 0.000000 0.000000 0.000000
					}
				}
			}
		}
	}
	JOINT spine_1
	{
		OFFSET -0.002763 0.109891 -0.027618
		CHANNELS 3 Zrotation Yrotation Xrotation
		JOINT spine_2
		{
			OFFSET 0.009448 0.131853 -0.005940
			CHANNELS 3 Zrotation Yrotation Xrotation
			JOINT spine_3
			{
				OFFSET -0.011330 0.052235 0.028447
				CHANNELS 3 Zrotation Yrotation Xrotation
				JOINT neck
				{
					OFFSET -0.012164 0.165167 -0.031615
					CHANNELS 3 Zrotation Yrotation Xrotation
					JOINT head
					{
						OFFSET 0.024783 0.160452 0.020737
						CHANNELS 3 Zrotation Yrotation Xrotation
						End Site
						{
							OFFSET 0.000000 0.000000 0.000000
						}
					}
				}
				JOINT left_collar
				{
					OFFSET 0.046364 0.084944 -0.007220
					CHANNELS 3 Zrotation Yrotation Xrotation
					JOINT left_shoulder
					{
						OFFSET 0.119239 0.057728 -0.015461
						CHANNELS 3 Zrotation Yrotation Xrotation
						JOINT left_elbow
						{
							OFFSET 0.254123 -0.072151 -0.042459
							CHANNELS 3 Zrotation Yrotation Xrotation
							JOINT left_wrist
							{
								OFFSET 0.251987 0.023221 -0.002472
								CHANNELS 3 Zrotation Yrotation Xrotation
								JOINT left_index_1
								{
									OFFSET 0.101902 -0.008688 0.019351
									CHANNELS 3 Zrotation Yrotation Xrotation
									JOINT left_index_2
									{
										OFFSET 0.030149 -0.011154 0.001151
										CHANNELS 3 Zrotation Yrotation Xrotation
										JOINT left_index_3
										{
											OFFSET 0.006504 -0.021577 -0.002433
											CHANNELS 3 Zrotation Yrotation Xrotation
											End Site
											{
												OFFSET 0.000000 0.000000 0.000000
											}
										}
									}
								}
								JOINT left_middle_1
								{
									OFFSET 0.109398 -0.006328 -0.003981
									CHANNELS 3 Zrotation Yrotation Xrotation
									JOINT left_middle_2
									{
										OFFSET 0.026472 -0.015218 -0.004641
										CHANNELS 3 Zrotation Yrotation Xrotation
										JOINT left_middle_3
										{
											OFFSET 0.005022 -0.023347 -0.001911
											CHANNELS 3 Zrotation Yrotation Xrotation
											End Site
											{
												OFFSET 0.000000 0.000000 0.000000
											}
										}
									}
								}
								JOINT left_pinky_1
								{
									OFFSET 0.084047 -0.014539 -0.043750
									CHANNELS 3 Zrotation Yrotation Xrotation
									JOINT left_pinky_2
									{
										OFFSET 0.012124 -0.014448 -0.005375
										CHANNELS 3 Zrotation Yrotation Xrotation
										JOINT left_pinky_3
										{
											OFFSET 0.003798 -0.018853 0.000167
											CHANNELS 3 Zrotation Yrotation Xrotation
											End Site
											{
												OFFSET 0.000000 0.000000 0.000000
											}
										}
									}
								}
								JOINT left_ring_1
								{
									OFFSET 0.097444 -0.009268 -0.027345
									CHANNELS 3 Zrotation Yrotation Xrotation
									JOINT left_ring_2
									{
										OFFSET 0.023561 -0.016057 -0.001895
										CHANNELS 3 Zrotation Yrotation Xrotation
										JOINT left_ring_3
										{
											OFFSET 0.004257 -0.023548 0.000814
											CHANNELS 3 Zrotation Yrotation Xrotation
											End Site
											{
												OFFSET 0.000000 0.000000 0.000000
											}
										}
									}
								}
								JOINT left_thumb_1
								{
									OFFSET 0.040636 -0.017977 0.025611
									CHANNELS 3 Zrotation Yrotation Xrotation
									JOINT left_thumb_2
									{
										OFFSET 0.021637 -0.017639 0.011623
										CHANNELS 3 Zrotation Yrotation Xrotation
										JOINT left_thumb_3
										{
											OFFSET 0.024002 -0.008356 0.006548
											CHANNELS 3 Zrotation Yrotation Xrotation
											End Site
											{
												OFFSET 0.000000 0.000000 0.000000
											}
										}
									}
								}
							}
						}
					}
				}
				JOINT right_collar
				{
					OFFSET -0.047695 0.084339 -0.013400
					CHANNELS 3 Zrotation Yrotation Xrotation
					JOINT right_shoulder
					{
						OFFSET -0.102578 0.053524 -0.012669
						CHANNELS 3 Zrotation Yrotation Xrotation
						JOINT right_elbow
						{
							OFFSET -0.271150 -0.036492 -0.026467
							CHANNELS 3 Zrotation Yrotation Xrotation
							JOINT right_wrist
							{
								OFFSET -0.249267 -0.004533 -0.015325
								CHANNELS 3 Zrotation Yrotation Xrotation
								JOINT right_index_1
								{
									OFFSET -0.099881 -0.011783 0.019600
									CHANNELS 3 Zrotation Yrotation Xrotation
									JOINT right_index_2
									{
										OFFSET -0.030148 -0.011154 0.001151
										CHANNELS 3 Zrotation Yrotation Xrotation
										JOINT right_index_3
										{
											OFFSET -0.006505 -0.021577 -0.002432
											CHANNELS 3 Zrotation Yrotation Xrotation
											End Site
											{
												OFFSET 0.000000 0.000000 0.000000
											}
										}
									}
								}
								JOINT right_middle_1
								{
									OFFSET -0.107376 -0.009422 -0.003734
									CHANNELS 3 Zrotation Yrotation Xrotation
									JOINT right_middle_2
									{
										OFFSET -0.026472 -0.015218 -0.004641
										CHANNELS 3 Zrotation Yrotation Xrotation
										JOINT right_middle_3
										{
											OFFSET -0.005022 -0.023347 -0.001911
											CHANNELS 3 Zrotation Yrotation Xrotation
											End Site
											{
												OFFSET 0.000000 0.000000 0.000000
											}
										}
									}
								}
								JOINT right_pinky_1
								{
									OFFSET -0.082027 -0.017634 -0.043503
									CHANNELS 3 Zrotation Yrotation Xrotation
									JOINT right_pinky_2
									{
										OFFSET -0.012123 -0.014448 -0.005374
										CHANNELS 3 Zrotation Yrotation Xrotation
										JOINT right_pinky_3
										{
											OFFSET -0.003798 -0.018852 0.000167
											CHANNELS 3 Zrotation Yrotation Xrotation
											End Site
											{
												OFFSET 0.000000 0.000000 0.000000
											}
										}
									}
								}
								JOINT right_ring_1
								{
									OFFSET -0.095423 -0.012362 -0.027099
									CHANNELS 3 Zrotation Yrotation Xrotation
									JOINT right_ring_2
									{
										OFFSET -0.023561 -0.016057 -0.001895
										CHANNELS 3 Zrotation Yrotation Xrotation
										JOINT right_ring_3
										{
											OFFSET -0.004257 -0.023548 0.000816
											CHANNELS 3 Zrotation Yrotation Xrotation
											End Site
											{
												OFFSET 0.000000 0.000000 0.000000
											}
										}
									}
								}
								JOINT right_thumb_1
								{
									OFFSET -0.038613 -0.021074 0.025861
									CHANNELS 3 Zrotation Yrotation Xrotation
									JOINT right_thumb_2
									{
										OFFSET -0.021636 -0.017639 0.011623
										CHANNELS 3 Zrotation Yrotation Xrotation
										JOINT right_thumb_3
										{
											OFFSET -0.024004 -0.008353 0.006547
											CHANNELS 3 Zrotation Yrotation Xrotation
											End Site
											{
												OFFSET 0.000000 0.000000 0.000000
											}
										}
									}
								}
							}
						}
					}
				}
			}
		}
	}
}
MOTION
Frames: 4
Frame Time: 0.050000
0.000027 0.972368 0.000587 -1.149226 -2.201074 -5.839831 1.548613 0.798961 6.153815 -1.430565 0.058566 0.681659 10.386455 24.682355 20.973776 0.000000 0.000000 0.000000 2.215219 -0.691147 4.298946 1.592140 0.068855 5.796382 -6.772517 -16.212361 9.649796 0.000000 0.000000 0.000000 -0.706102 -0.489209 6.548803 -7.542844 -0.723379 -16.789943 7.621466 -0.988436 24.823677 3.782891 0.919911 -9.001291 0.000000 0.000000 0.000000 -5.806531 1.780223 -1.434167 -46.570997 2.179999 -8.413482 -41.625885 -37.783154 19.440332 -6.670552 2.085074 32.615668 -23.442189 7.666718 -0.269003 1.501298 7.913322 16.638512 0.000000 0.000000 0.000000 -13.704146 0.641408 -3.094308 -25.839443 9.169678 3.384531 0.000000 0.000000 0.000000 21.785266 -14.576857 -3.081610 -82.334272 -6.108190 -22.642328 0.000000 0.000000 0.000000 -7.477249 1.400642 -0.572542 -53.133387 6.436333 -6.262285 0.000000 0.000000 0.000000 7.760295 34.843859 34.247262 1.235260 -20.835815 -7.887723 0.000000 0.000000 0.000000 5.659167 3.628100 1.408981 52.663072 7.163638 -4.615230 25.299263 32.130037 5.469983 8.153273 -1.490051 32.127682 21.968757 -3.882767 -0.593419 4.942702 -10.158458 14.703108 0.000000 0.000000 0.000000 15.330784 1.069569 -4.026157 30.592046 -8.725318 -0.919583 0.000000 0.000000 0.000000 -10.295010 13.342984 -4.299154 66.457376 4.956873 -24.968901 0.000000 0.000000 0.000000 12.649193 0.160710 -1.933624 47.414793 -3.681534 -10.504737 0.000000 0.000000 0.000000 -3.455371 -33.223324 31.991914 -4.491973 18.843591 -8.847930 0.000000 0.000000 0.000000 
0.000144 0.972368 0.000587 -1.177788 -2.183809 -5.599470 1.574193 0.757020 5.858953 -1.440663 0.054618 0.731917 10.380820 24.678984 20.996088 0.000000 0.000000 0.000000 2.241257 -0.652728 4.001527 1.608462 0.068752 5.850126 -6.789891 -16.247533 9.682492 0.000000 0.000000 0.000000 -0.668524 -0.463131 6.162959 -7.544272 -0.506759 -15.992039 7.457075 -1.595363 24.308528 3.714302 0.881903 -8.769863 0.000000 0.000000 0.000000 -5.838860 1.824020 -1.428026 -46.727745 2.100098 -8.333293 -41.757075 -38.493143 19.939100 -7.016350 2.432936 32.066651 -23.701706 6.960770 -0.407219 4.937854 6.575946 16.589200 0.000000 0.000000 0.000000 -13.340526 0.877647 -2.871747 -25.332201 8.732216 2.963043 0.000000 0.000000 0.000000 22.163018 -13.258777 -1.824494 -80.548191 -7.390773 -23.571720 0.000000 0.000000 0.000000 -7.461067 1.560577 -0.469597 -52.072935 5.966272 -6.676151 0.000000 0.000000 0.000000 7.609056 34.283092 33.739287 0.904278 -20.095850 -7.420984 0.000000 0.000000 0.000000 5.627292 3.761189 1.449980 52.536469 8.018112 -4.399641 25.686304 31.825213 5.452012 7.755882 -0.888772 32.014735 21.950868 -3.627476 -0.656465 6.891071 -10.935123 14.511005 0.000000 0.000000 0.000000 15.640943 1.203496 -4.147256 29.804403 -8.788278 -0.383212 0.000000 0.000000 0.000000 -10.254826 14.815275 -5.088965 67.645089 9.820982 -26.756694 0.000000 0.000000 0.000000 13.142227 0.710241 -2.209472 49.931970 -3.050804 -11.524617 0.000000 0.000000 0.000000 -4.908717 -32.988886 32.180433 -2.978338 20.121997 -8.555142 0.000000 0.000000 0.000000 
0.000203 0.972368 0.000587 -1.162796 -2.232997 -5.598907 1.560732 0.760242 5.873028 -1.460883 0.058585 0.711895 10.405927 24.709865 21.023636 0.000000 0.000000 0.000000 2.234309 -0.596928 3.606017 1.597331 0.088784 6.558970 -6.813931 -16.247251 9.546452 0.000000 0.000000 0.000000 -0.724636 -0.492519 6.601247 -7.498372 -0.784007 -16.942995 7.489044 -1.506481 25.063684 3.710339 0.970154 -9.290755 0.000000 0.000000 0.000000 -5.820427 2.292547 -1.687162 -46.753096 1.378653 -8.293182 -42.279462 -38.501016 20.183098 -7.540023 2.755109 33.459805 -21.846452 5.188961 -0.553250 -0.073281 8.857795 16.474729 0.000000 0.000000 0.000000 -13.494076 0.273146 -3.186550 -26.599520 9.252922 2.455619 0.000000 0.000000 0.000000 19.931858 -13.663260 -2.456513 -76.517998 -7.109713 -24.980654 0.000000 0.000000 0.000000 -7.905747 1.209554 -0.712868 -50.812451 5.735598 -8.220935 0.000000 0.000000 0.000000 7.775358 33.409076 33.002345 0.767470 -20.146416 -7.357276 0.000000 0.000000 0.000000 5.581040 4.438344 1.857032 52.658126 7.834768 -4.495754 25.630156 33.042981 5.744653 7.447567 -0.754517 31.416673 21.774158 -3.286566 -0.668344 7.292827 -11.767400 15.761616 0.000000 0.000000 0.000000 15.349000 1.121337 -4.015714 29.844722 -7.030781 -3.407479 0.000000 0.000000 0.000000 -8.136310 13.175492 -4.543743 66.929053 7.299564 -25.286738 0.000000 0.000000 0.000000 11.293971 2.243737 -2.425766 48.972692 -4.783503 -7.858263 0.000000 0.000000 0.000000 -4.061296 -32.973021 31.951839 -6.917210 19.802110 -10.645233 0.000000 0.000000 0.000000 
0.000439 0.972368 0.001907 -1.162982 -2.236388 -5.594605 1.560885 0.735541 5.688554 -1.489308 0.013735 1.216066 10.405171 24.689095 20.920550 0.000000 0.000000 0.000000 2.225264 -0.622374 3.792800 1.569381 0.086870 6.378891 -6.793166 -16.214633 9.539827 0.000000 0.000000 0.000000 -0.670622 -0.492831 6.604014 -7.518490 -0.779779 -16.954779 7.654322 -0.939837 24.714405 3.719049 0.795376 -8.271387 0.000000 0.000000 0.000000 -5.698460 1.377152 -1.200878 -46.877460 1.759715 -8.414432 -42.863258 -39.229065 20.792397 -6.875436 1.780037 32.030082 -22.236763 6.696501 -0.182034 1.840352 7.250798 15.633327 0.000000 0.000000 0.000000 -12.473097 0.710788 -2.693341 -26.373511 7.848217 0.523339 0.000000 0.000000 0.000000 20.249408 -13.915628 -2.752796 -78.678250 -7.001232 -23.370314 0.000000 0.000000 0.000000 -8.440776 1.762873 -0.611944 -49.874687 6.085484 -6.059243 0.000000 0.000000 0.000000 8.241409 33.285950 32.969713 -0.578533 -19.104256 -6.235421 0.000000 0.000000 0.000000 5.666109 3.647399 1.419984 52.758174 7.195973 -4.598591 26.367889 33.803755 6.149817 7.574986 -1.326923 31.890169 22.042325 -3.494251 -0.682592 7.917467 -11.579603 14.831961 0.000000 0.000000 0.000000 15.524249 0.736810 -3.930920 28.543560 -8.102296 -0.759106 0.000000 0.000000 0.000000 -10.811718 14.263197 -4.871639 67.567519 8.134746 -25.806997 0.000000 0.000000 0.000000 12.489684 -0.515260 -1.646438 48.735505 -3.352557 -11.098559 0.000000 0.000000 0.000000 -5.956154 -32.314530 31.892154 -1.328850 19.607057 -7.425542 0.000000 0.000000 0.000000 
